<svg xmlns="http://www.w3.org/2000/svg" width="512" height="512" id="pinterest"><switch><g><path fill="#CB2128" d="M508 256.879c0 138.066-111.934 250-250 250-138.067 0-250-111.934-250-250 0-138.067 111.933-250 250-250 138.066 0 250 111.933 250 250zm0 0"></path><path fill="#F2F2F2" d="M278.172 341.655c-18.888-1.479-26.83-10.836-41.649-19.845-8.16 42.736-18.104 83.711-47.61 105.122-9.096-64.605 13.361-113.13 23.806-164.613-17.778-29.961 2.132-90.242 39.668-75.379 46.175 18.262-39.995 111.348 17.865 122.968 60.384 12.142 85.038-104.774 47.589-142.811-54.117-54.903-157.521-1.24-144.791 77.359 3.09 19.211 22.957 25.043 7.92 51.569-34.62-7.676-44.956-34.99-43.628-71.395 2.154-59.601 53.551-101.333 105.122-107.122 65.236-7.292 126.447 23.952 134.891 85.296 9.507 69.242-29.443 144.226-99.183 138.851zm0 0"></path></g></switch></svg>